<?xml version="1.0" encoding="utf-8"?>
<!-- Generator: Adobe Illustrator 24.0.0, SVG Export Plug-In . SVG Version: 6.00 Build 0)  -->
<svg version="1.1" id="Layer_1" xmlns="http://www.w3.org/2000/svg" xmlns:xlink="http://www.w3.org/1999/xlink" x="157px" y="45px"
	 viewBox="0 0 157 47" style="enable-background:new 0 0 157 47;" xml:space="preserve">
<style type="text/css">
	.st0{fill:#069B96;}
	.st1{fill-rule:evenodd;clip-rule:evenodd;fill:#FAB01A;}
	.st2{fill-rule:evenodd;clip-rule:evenodd;fill:#069B96;}
	.st3{fill-rule:evenodd;clip-rule:evenodd;fill:#2162AE;}
	.st4{fill-rule:evenodd;clip-rule:evenodd;fill:#5F449B;}
	.st5{fill-rule:evenodd;clip-rule:evenodd;fill:#B03963;}
	.st6{fill-rule:evenodd;clip-rule:evenodd;fill:#ED3326;}
	.st7{fill-rule:evenodd;clip-rule:evenodd;fill:#F37F20;}
	.st8{fill:#2162AE;}
	.st9{fill:#5F449B;}
	.st10{fill:#B03963;}
	.st11{fill:#ED3326;}
	.st12{fill:#F37F20;}
	.st13{fill:#FAB01A;}
</style>
<g>
	<g>
		<g>
			<path class="st0" d="M55.98,16.71v10.17c0,1.27-0.38,2.3-1.15,3.1c-0.77,0.8-1.76,1.2-2.97,1.2c-1.46,0-2.58-0.67-3.35-2
				c-0.48,0.72-0.99,1.23-1.53,1.54c-0.54,0.31-1.22,0.46-2.02,0.46c-1.27,0-2.24-0.4-2.92-1.2c-0.68-0.8-1.01-1.95-1.01-3.46v-9.82
				h4.2v9.19c0,0.46,0.04,0.76,0.11,0.9c0.07,0.14,0.22,0.22,0.44,0.22c0.41,0,0.62-0.35,0.62-1.04v-9.26h4.2v9.19
				c0,0.44,0.04,0.74,0.11,0.89c0.08,0.15,0.22,0.23,0.44,0.23c0.41,0,0.62-0.37,0.62-1.12v-9.19H55.98z"/>
			<path class="st0" d="M68.37,26.3h-5.87c-0.09-0.3-0.13-0.57-0.13-0.82c0-0.34,0.06-0.68,0.19-1.01h1.97
				c-0.14-0.77-0.57-1.15-1.29-1.15c-0.48,0-0.88,0.21-1.18,0.62c-0.3,0.41-0.46,0.94-0.46,1.58c0,0.67,0.15,1.21,0.44,1.62
				c0.29,0.41,0.68,0.62,1.15,0.62c0.39,0,0.76-0.19,1.12-0.58l2.2,2.65c-1.03,0.81-2.17,1.21-3.42,1.21
				c-1.53,0-2.82-0.51-3.86-1.54c-1.04-1.03-1.56-2.3-1.56-3.82c0-1.51,0.53-2.79,1.58-3.83c1.05-1.04,2.34-1.56,3.87-1.56
				c1.5,0,2.75,0.51,3.77,1.53c1.02,1.02,1.53,2.27,1.53,3.76C68.41,25.73,68.4,25.97,68.37,26.3z"/>
			<path class="st0" d="M85.11,23.93l4.4,0.11c-0.29,2.28-1.08,4.03-2.36,5.28c-1.29,1.24-2.96,1.86-5.03,1.86
				c-2.1,0-3.86-0.71-5.28-2.12c-1.42-1.41-2.13-3.16-2.13-5.25c0-2.1,0.72-3.87,2.17-5.31c1.44-1.43,3.23-2.15,5.34-2.15
				c2.08,0,3.82,0.7,5.21,2.11c0.97,0.97,1.65,2.33,2.05,4.07l-4.5,0.3c-0.5-1.54-1.46-2.32-2.87-2.32c-0.9,0-1.64,0.31-2.22,0.93
				c-0.58,0.62-0.87,1.41-0.87,2.37c0,0.92,0.29,1.69,0.86,2.29c0.57,0.6,1.3,0.91,2.17,0.91c0.89,0,1.6-0.27,2.13-0.8
				C84.7,25.69,85.01,24.93,85.11,23.93z"/>
			<path class="st0" d="M96.1,20.3c1.46,0,2.72,0.53,3.76,1.58c1.04,1.05,1.57,2.31,1.57,3.78c0,1.49-0.53,2.76-1.59,3.81
				c-1.06,1.05-2.34,1.57-3.83,1.57c-1.5,0-2.78-0.53-3.84-1.58c-1.06-1.05-1.59-2.32-1.59-3.8c0-1.51,0.53-2.78,1.59-3.81
				C93.23,20.82,94.54,20.3,96.1,20.3z M95.99,24.12c-0.41,0-0.77,0.15-1.06,0.45c-0.29,0.3-0.43,0.67-0.43,1.1
				c0,0.43,0.15,0.79,0.44,1.1c0.29,0.3,0.64,0.46,1.05,0.46c0.41,0,0.77-0.15,1.06-0.46c0.29-0.3,0.44-0.67,0.44-1.1
				c0-0.43-0.14-0.8-0.43-1.1C96.77,24.27,96.41,24.12,95.99,24.12z"/>
			<path class="st0" d="M112.23,30.83h-3.87v-5.82c0-0.59-0.24-0.89-0.73-0.89c-0.48,0-0.72,0.3-0.72,0.89v5.82h-3.87v-5.75
				c0-1.34,0.44-2.48,1.33-3.4c0.89-0.92,1.98-1.38,3.27-1.38c1.48,0,2.66,0.53,3.55,1.6c0.7,0.83,1.04,2,1.04,3.49V30.83z"/>
			<path class="st0" d="M123.69,30.83h-3.87v-5.82c0-0.59-0.24-0.89-0.73-0.89c-0.48,0-0.72,0.3-0.72,0.89v5.82h-3.87v-5.75
				c0-1.34,0.44-2.48,1.33-3.4c0.89-0.92,1.98-1.38,3.27-1.38c1.48,0,2.66,0.53,3.55,1.6c0.7,0.83,1.04,2,1.04,3.49V30.83z"/>
			<path class="st0" d="M136.08,26.3h-5.87c-0.09-0.3-0.13-0.57-0.13-0.82c0-0.34,0.06-0.68,0.19-1.01h1.97
				c-0.14-0.77-0.57-1.15-1.29-1.15c-0.48,0-0.88,0.21-1.18,0.62c-0.3,0.41-0.46,0.94-0.46,1.58c0,0.67,0.15,1.21,0.44,1.62
				c0.29,0.41,0.68,0.62,1.15,0.62c0.39,0,0.76-0.19,1.12-0.58l2.2,2.65c-1.03,0.81-2.17,1.21-3.42,1.21
				c-1.53,0-2.82-0.51-3.86-1.54c-1.04-1.03-1.56-2.3-1.56-3.82c0-1.51,0.53-2.79,1.58-3.83c1.05-1.04,2.34-1.56,3.87-1.56
				c1.5,0,2.75,0.51,3.77,1.53c1.02,1.02,1.53,2.27,1.53,3.76C136.12,25.73,136.11,25.97,136.08,26.3z"/>
			<path class="st0" d="M144.01,26.09l3.84-0.14c-0.11,1.49-0.67,2.71-1.67,3.67c-1,0.96-2.22,1.44-3.65,1.44
				c-1.52,0-2.8-0.53-3.84-1.58c-1.04-1.06-1.57-2.35-1.57-3.88c0-1.46,0.53-2.7,1.58-3.73c1.06-1.03,2.32-1.55,3.8-1.55
				c1.29,0,2.43,0.41,3.41,1.22c0.99,0.81,1.6,1.85,1.84,3.11l-3.92,0.14c-0.34-0.44-0.77-0.66-1.28-0.66
				c-0.44,0-0.8,0.14-1.09,0.43c-0.28,0.29-0.42,0.66-0.42,1.1c0,0.45,0.15,0.82,0.45,1.13c0.3,0.3,0.67,0.46,1.12,0.46
				C143.27,27.23,143.74,26.85,144.01,26.09z"/>
			<path class="st0" d="M152.98,16.71v3.95h1.74v4.09h-1.74c0,0.82,0.13,1.39,0.39,1.7c0.26,0.31,0.73,0.47,1.42,0.47v4.07
				c-0.2,0.01-0.35,0.01-0.44,0.01c-0.88,0-1.7-0.2-2.48-0.61c-0.78-0.41-1.4-0.96-1.87-1.66c-0.59-0.89-0.89-2.07-0.89-3.54v-8.47
				H152.98z"/>
		</g>
	</g>
	<g>
		<g>
			<g>
				<path class="st1" d="M6.75,16.69c3,4.38,16.27,3.72,17.04,3.47c0.77-0.25-1.1-1.35-1.53-2c-6.47-1.65-10.72-2.1-14.11-5.1
					C6.61,11.68,5.33,14.61,6.75,16.69z"/>
			</g>
			<g>
				<path class="st2" d="M5.87,30.39c5.3,0.33,12.95-10.52,13.23-11.29c0.28-0.76-0.47-1.21-1.25-1.28
					c-5.28,4.09-9.53,8.4-13.97,9.22C1.84,27.42,3.36,30.23,5.87,30.39z"/>
			</g>
			<g>
				<path class="st3" d="M15.85,39.45c3.52-3.97-0.32-16.68-0.75-17.37c-0.43-0.69-1.06-0.44-1.59,0.14
					c-0.03,6.68,0.57,12.74-1.52,16.75C11.03,40.8,14.18,41.33,15.85,39.45z"/>
			</g>
			<g>
				<path class="st4" d="M29.34,37.21C28.38,31.99,16,27.19,15.19,27.1c-0.81-0.09-1.09,0.58-0.97,1.36
					c5.25,4.14,10.49,7.38,12.36,11.49C27.44,41.83,29.8,39.68,29.34,37.21z"/>
			</g>
			<g>
				<path class="st5" d="M36.03,25.21c-4.7-2.46-16.11,4.35-16.67,4.93c-0.56,0.58-0.11,1.22,0.58,1.6
					c6.49-1.59,12.17-3.72,16.56-2.67C38.51,29.56,38.27,26.38,36.03,25.21z"/>
			</g>
			<g>
				<path class="st6" d="M30.68,12.67c-4.83,2.2-6.49,15.37-6.38,16.18c0.11,0.8,0.86,0.95,1.58,0.64
					c2.74-6.09,4.59-11.99,8.13-14.8C35.63,13.4,32.97,11.63,30.68,12.67z"/>
			</g>
			<g>
				<path class="st7" d="M17.54,9.38c-1.24,5.16,8.12,14.58,8.82,14.99c0.7,0.41,1.53,0.01,1.73-0.75
					C24.98,17.71,21.21,12.52,21.18,8C21.16,5.93,18.13,6.93,17.54,9.38z"/>
			</g>
			<path class="st1" d="M20.75,17.89c-0.51,1.79,0.27,1.91,0.58,2.47c0.97,1.26,3.52,0.27,3.9,0.11c0.07-0.02,0.14-0.05,0.2-0.07
				c0.58-0.21,0.96-0.7,0.83-1.05c-0.07-0.19-0.27-0.31-0.52-0.35c0.27-0.23,0.41-0.53,0.33-0.76c-0.08-0.23-0.35-0.36-0.69-0.36
				c0.24-0.23,0.36-0.5,0.28-0.72c-0.1-0.29-0.51-0.42-0.98-0.34c0.15-0.18,0.22-0.39,0.16-0.55c-0.12-0.32-0.65-0.43-1.18-0.24
				c-0.2,0.07-0.37,0.18-0.51,0.29C22.39,16.41,21.08,16.69,20.75,17.89z"/>
			<path class="st7" d="M26.38,20.87c-1.8,0.46-1.53,1.19-1.85,1.73c-0.6,1.47,1.53,3.19,1.85,3.43c0.05,0.05,0.11,0.09,0.16,0.14
				c0.47,0.4,1.09,0.48,1.33,0.2c0.13-0.15,0.14-0.38,0.04-0.63c0.34,0.12,0.67,0.09,0.83-0.1c0.16-0.18,0.13-0.48-0.03-0.78
				c0.32,0.1,0.61,0.06,0.76-0.12c0.2-0.23,0.11-0.65-0.19-1.02c0.23,0.04,0.44-0.01,0.56-0.14c0.22-0.26,0.05-0.78-0.39-1.14
				c-0.16-0.14-0.34-0.24-0.51-0.29C28.48,21.56,27.58,20.57,26.38,20.87z"/>
			<path class="st6" d="M26.94,26.6c-1.49-1.11-1.88-0.43-2.51-0.34c-1.52,0.46-1.5,3.2-1.49,3.6c0,0.07,0,0.15,0,0.21
				c-0.01,0.62,0.31,1.15,0.69,1.15c0.2,0,0.38-0.14,0.51-0.37c0.12,0.34,0.35,0.58,0.6,0.58c0.24,0,0.46-0.2,0.58-0.51
				c0.13,0.31,0.34,0.51,0.57,0.52c0.31,0.01,0.57-0.33,0.66-0.79c0.12,0.21,0.28,0.34,0.46,0.34c0.34,0.01,0.63-0.45,0.64-1.02
				c0-0.21-0.03-0.41-0.09-0.58C27.73,28.66,27.93,27.34,26.94,26.6z"/>
			<path class="st5" d="M22.77,31.16c-0.21-1.85-0.97-1.67-1.47-2.06c-1.38-0.8-3.36,1.09-3.65,1.38c-0.05,0.05-0.11,0.1-0.16,0.14
				c-0.46,0.42-0.62,1.01-0.37,1.29c0.13,0.15,0.36,0.19,0.62,0.12c-0.17,0.32-0.18,0.65-0.02,0.83c0.16,0.18,0.46,0.2,0.77,0.07
				c-0.14,0.3-0.14,0.6,0.02,0.77c0.21,0.23,0.63,0.19,1.03-0.06c-0.07,0.23-0.05,0.44,0.07,0.57c0.23,0.26,0.76,0.15,1.19-0.23
				c0.16-0.14,0.28-0.3,0.36-0.46C21.81,33.15,22.92,32.39,22.77,31.16z"/>
			<path class="st4" d="M16.91,30.53c1.44-1.18,0.87-1.72,0.93-2.35c-0.08-1.59-2.74-2.23-3.14-2.31c-0.07-0.02-0.14-0.04-0.2-0.05
				c-0.6-0.16-1.19,0.03-1.28,0.39c-0.05,0.19,0.04,0.41,0.23,0.58c-0.36,0.04-0.64,0.2-0.71,0.44c-0.06,0.23,0.09,0.49,0.36,0.69
				c-0.33,0.05-0.58,0.21-0.64,0.43c-0.08,0.3,0.18,0.64,0.61,0.84c-0.23,0.06-0.4,0.19-0.44,0.37c-0.09,0.33,0.29,0.72,0.84,0.87
				c0.21,0.06,0.41,0.07,0.58,0.05C14.72,30.8,15.96,31.32,16.91,30.53z"/>
			<path class="st3" d="M13.81,25.3c1.85,0.17,1.83-0.61,2.32-1.01c1.06-1.18-0.38-3.51-0.6-3.85c-0.04-0.06-0.07-0.13-0.11-0.18
				c-0.31-0.54-0.86-0.82-1.19-0.63c-0.17,0.1-0.26,0.32-0.25,0.58c-0.28-0.23-0.6-0.31-0.81-0.19c-0.21,0.12-0.29,0.41-0.23,0.74
				c-0.27-0.2-0.56-0.26-0.76-0.14c-0.27,0.15-0.32,0.58-0.16,1.02c-0.21-0.12-0.42-0.14-0.57-0.05c-0.3,0.17-0.31,0.71-0.02,1.21
				c0.11,0.18,0.24,0.34,0.38,0.44C12.06,23.94,12.58,25.18,13.81,25.3z"/>
			<g>
				<path class="st1" d="M22.56,18.13c-1.86-0.47-3.53-0.85-5.05-1.21c1.25,0.92,2.44,2.02,3.02,3.4c1.92,0,3.33-0.11,3.56-0.19
					C24.86,19.88,22.99,18.78,22.56,18.13z"/>
			</g>
			<path class="st2" d="M16.34,19.91c1.31,1.32,1.8,0.71,2.43,0.7c1.57-0.23,1.96-2.94,2-3.34c0.01-0.07,0.02-0.14,0.04-0.21
				c0.1-0.61-0.14-1.18-0.51-1.24c-0.2-0.03-0.4,0.08-0.56,0.29c-0.07-0.35-0.26-0.62-0.5-0.66c-0.24-0.04-0.48,0.13-0.65,0.42
				c-0.08-0.32-0.26-0.56-0.49-0.59c-0.3-0.05-0.62,0.24-0.77,0.69c-0.09-0.22-0.23-0.38-0.41-0.41c-0.34-0.06-0.69,0.35-0.79,0.92
				c-0.04,0.21-0.03,0.41,0.01,0.59C15.86,17.75,15.46,19.03,16.34,19.91z"/>
		</g>
		<g>
			<g>
				<path class="st0" d="M7.58,35.33l-5.12-6.48c-0.22-0.28-0.3-0.65-0.22-0.99l1.71-7.35l2.28,0.53l-1.59,6.8l4.77,6.04L7.58,35.33
					z"/>
			</g>
			<g>
				<path class="st8" d="M21.02,41.14L12.7,41.1c-0.36,0-0.69-0.17-0.91-0.45l-4.2-5.33l1.84-1.45l3.86,4.88l7.76,0.04L21.02,41.14z
					"/>
			</g>
			<g>
				<path class="st9" d="M27.75,41.17C27.75,41.17,27.75,41.17,27.75,41.17l-6.73-0.03l0.01-2.34l6.16,0.03l4.73-5.87l1.83,1.47
					l-5.08,6.31C28.44,41.01,28.11,41.17,27.75,41.17z"/>
			</g>
			<g>
				<path class="st10" d="M33.75,34.43l-1.83-1.47l4-4.97L34.37,21l2.29-0.51l1.68,7.54c0.08,0.35-0.01,0.71-0.23,0.99L33.75,34.43z
					"/>
			</g>
			<g>
				<path class="st11" d="M34.37,21l-1.47-6.6l-6.43-3.14l1.03-2.11l6.94,3.38c0.32,0.16,0.55,0.45,0.63,0.8l1.6,7.15L34.37,21z"/>
			</g>
			<g>
				<path class="st12" d="M13.72,11.47l-1.01-2.12l7.18-3.41c0.32-0.15,0.7-0.15,1.02,0l6.58,3.21l-1.03,2.11L20.38,8.3L13.72,11.47
					z"/>
			</g>
			<g>
				<path class="st13" d="M6.24,21.03L3.95,20.5l1.7-7.3c0.08-0.35,0.32-0.64,0.64-0.79l6.41-3.05l1.01,2.12l-5.9,2.81L6.24,21.03z"
					/>
			</g>
		</g>
	</g>
</g>
</svg>
